<?xml version="1.0" encoding="utf-8"?>
<!-- Generator: Adobe Illustrator 23.1.0, SVG Export Plug-In . SVG Version: 6.00 Build 0)  -->
<svg version="1.1" id="Capa_1" xmlns="http://www.w3.org/2000/svg" xmlns:xlink="http://www.w3.org/1999/xlink" x="0px" y="0px"
	 viewBox="0 0 76 87" style="enable-background:new 0 0 76 87;" xml:space="preserve">
<style type="text/css">
	.st0{fill:#0062B1;}
</style>
<path class="st0" d="M42.4,5.5c-15.3,0-27.3,3.6-31.9,5.8l3.7,12.1c0,0,11.7-4,23.3-4c9.9,0,15,2.6,15,11.8v5.2h-15
	c-25.4,0-32.9,11-32.9,23.1c0,16.1,13.3,21.2,25.4,21.2c14.1,0,22.3-5.5,23.3-5.5c0.8,0,3.7,2.9,16.5,2.9V27
	C69.7,11.6,59.6,5.5,42.4,5.5 M52.6,64c-3.7,1.4-12.5,4.1-19.1,4.1c-7.1,0-12.4-2.3-12.4-9.6c0-6.4,3.7-10,13.4-10.3l18.1-0.6V64z"
	/>
</svg>
