<svg xmlns="http://www.w3.org/2000/svg" viewBox="0 0 75.3 73"><path fill="#273b7d" d="M29.5 57.1H18.7V44.3c0-2.7 1.1-4.2 3.4-4.5h7.4c4.4-.4 8.3 2.9 8.6 7.3v1.3c0 5.5-3.3 8.8-8.6 8.7zM18.7 22.4V19c0-3 1.3-4.4 4-4.6h5.5c4.7 0 7.6 2.8 7.6 7.6 0 3.6-1.9 7.8-7.4 7.8h-9.7v-7.4zm24.5 12.9l-1.9-1.1 1.7-1.5c2-1.7 5.3-5.5 5.3-12.1 0-10.1-7.8-16.6-20-16.6H12.9c-3.6 0-6.5 3-6.5 6.6v57.3h22.2c13.5 0 22.2-7.3 22.2-18.7-.1-6.1-2.9-11.4-7.6-13.9"/><path fill="#499fdd" d="M54.2 60.2c0-4.3 3.4-7.7 7.7-7.7s7.7 3.5 7.7 7.7-3.4 7.8-7.7 7.8-7.7-3.5-7.7-7.8"/></svg>