<svg xmlns="http://www.w3.org/2000/svg" id="Capa_1" x="0" y="0" version="1.1" viewBox="0 0 105 115.5" xml:space="preserve"><style>.st0{fill:#a91d1c}</style><path d="M7.8 29.8l34.1 9.5c.1 0 .2.1.3.1.7 0 1.2-.4 1.5-1l.1-.4v-.1L50 5.1c0-.9-.7-1.6-1.6-1.6-.1 0-.2 0-.3.1L7.8 26.8c-.6.2-1.1.8-1.1 1.5-.1.7.4 1.3 1.1 1.5zM48.7 38.2v.3c.1.6.6 1.1 1.2 1.3h.5l45.3-10.6c.9-.1 1.5-.9 1.4-1.7 0-.1-.1-.3-.6-.6L56.7 3.7s-.7-.6-1.4-.5c-.7.1-1.2.6-1.3 1.2l-5.3 33.8zM6.9 34.9c.1.1.1.2.2.3l27 34.6c.3.3.7.6 1.2.6.9 0 1.6-.7 1.6-1.6l4.8-23.1v-.2c0-.7-.4-1.2-.9-1.5-.1 0-.1 0-.2-.1L8.9 32.6c-.1 0-.1 0-.2-.1-.2-.1-.3-.1-.5-.1-.9 0-1.6.7-1.6 1.6 0 .4.1.6.3.9zM30.6 74.8c.6-.3 1-.8 1-1.5 0-.3-.1-.6-.3-.9l-26-36.2v-.1c-.3-.4-.8-.6-1.3-.6-.9 0-1.6.7-1.6 1.6l.9 46.3c0 .9.7 1.6 1.6 1.6.3 0 .5-.1.7-.2l25-10zM48.5 110.7l-13.3-31c-.2-.6-.8-1-1.5-1-.2 0-.4 0-.6.1L7.5 87.3c-.6.2-1.1.8-1.1 1.5 0 .6.3 1.1.8 1.4l38.9 22.4c.3.2.6.3 1 .3.9 0 1.6-.7 1.6-1.6 0-.2-.1-.4-.2-.6zM68.7 61.7c-.1 0-.1 0 0 0L48 47.3c-.3-.1-.6-.3-1-.3-.7 0-1.3.5-1.5 1.1l-5.9 21.1c-.1.2-.2.5-.2.8 0 .9.7 1.6 1.6 1.6.3 0 .5-.1.8-.2L68 64.6c.8-.1 1.3-.8 1.3-1.6 0-.5-.2-1-.6-1.3zM71 70c0-.9-.7-1.6-1.6-1.6-.1 0-.3 0-.4.1l-27.8 8.2c-.6.2-1.1.8-1.1 1.5 0 .3.1.5.2.7L51 110.4c.2.6.8 1 1.5 1s1.3-.4 1.5-1l16.8-39.5c.1-.3.2-.6.2-.9zM98.2 87l-21-16.5c-.3-.3-.7-.4-1.1-.4-.7 0-1.3.4-1.5 1.1L57.2 110c-.1.2-.1.4-.1.6 0 .9.7 1.6 1.6 1.6.3 0 .6-.1.8-.2L98 89.6c.5-.3.8-.8.8-1.4 0-.5-.3-.9-.6-1.2zM95.5 32.4h-.2L52.1 42.9c-.7.1-1.3.8-1.3 1.6 0 .6.4 1.2.9 1.4l21.7 14.3c.3.3.7.4 1.1.4.4 0 .8-.2 1.1-.4l.3-.3 21-24.9c.2-.3.3-.6.3-.9 0-.9-.8-1.7-1.7-1.7zM100.9 35.4c-.5 0-1 .3-1.3.7L80.3 62.9c-.3.3-.5.7-.5 1.1 0 .5.3 1 .7 1.3l18.4 17.4.2.2.1.1c.3.2.6.3 1 .3.9 0 1.6-.7 1.6-1.6l.8-44.7c-.1-.9-.8-1.6-1.7-1.6z" class="st0"/></svg>