<svg xmlns="http://www.w3.org/2000/svg" viewBox="0 0 350 117"><path fill="#bfcb3b" d="M112.8 7.4C105 7.4 98 12.5 96 19.6l-6.4 21.3-4.4-19.4c-1.8-8.1-9-14-17.3-14s-15.4 5.9-17.2 14l-4.4 19.4L40 19.6c-2-7.1-9-12.3-16.8-12.3-9.7 0-17.6 8-17.6 17.7 0 2.3.4 4.4.9 6.1 0 0 23.4 71.1 23.6 71.7 1.8 3.9 5.7 6.8 10.2 6.8 3.2 0 6-1.3 8.1-3.5l19.4-18.4 19.4 18.4c2 2.1 4.9 3.5 8.1 3.5 4.6 0 8.6-2.7 10.2-6.8.3-.6 23.6-71.7 23.6-71.7.6-1.7.9-3.8.9-6.1.4-9.7-7.5-17.6-17.2-17.6z"/><path fill="#535759" d="M326.1 109.7c-7.8 0-14.8-5.1-16.8-12.3L303 76.1l-4.4 19.4c-1.8 8.1-9 14-17.2 14s-15.4-5.9-17.2-14l-4.4-19.4-6.4 21.3c-2 7.1-9 12.3-16.8 12.3-9.7 0-17.6-8-17.6-17.7 0-2.3.4-4.4.9-6.1 0 0 23.4-71.1 23.6-71.7v-.1c1.8-3.9 5.7-6.8 10.2-6.8 3.2 0 6 1.3 8.1 3.5l19.5 18.5 19.4-18.4c2-2.1 4.9-3.5 8.1-3.5 4.6 0 8.6 2.7 10.2 6.8v.1c.3.6 23.6 71.7 23.6 71.7.6 1.7.9 3.8.9 6.1.3 9.6-7.7 17.6-17.4 17.6zM196.2 78.2h-5.9l5.3-4.5c9.4-7.8 14.2-17.7 14.2-29.2 0-20.4-16.6-37.1-36.9-37.1-14 0-22.9 7.2-28 13.2-6.1 7.3-8.8 15.8-8.8 21 0 8.5 6.9 15.5 15.4 15.5 6 0 10.9-3 13.8-8.5.4-.7.7-1.4 1.1-2.2 2.5-5.1 3.7-6.8 6.5-6.8 2.7 0 4.8 2.1 4.8 4.8 0 4.4-8.2 11.3-11.6 14.3-6.2 5.6-28.4 23.7-29.1 24.5-2.7 2.8-4.3 6.6-4.3 10.8 0 8.7 7 15.8 15.7 15.8h47.8c8.7 0 15.7-7 15.7-15.8s-7.1-15.8-15.7-15.8z"/></svg>